<?xml version="1.0" encoding="UTF-8" standalone="no"?>
<svg
   xmlns:dc="http://purl.org/dc/elements/1.1/"
   xmlns:cc="http://creativecommons.org/ns#"
   xmlns:rdf="http://www.w3.org/1999/02/22-rdf-syntax-ns#"
   xmlns:svg="http://www.w3.org/2000/svg"
   xmlns="http://www.w3.org/2000/svg"
   version="1.1"
   id="svg2"
   viewBox="0 0 99.999997 99.999652"
   height="99.999649"
   width="100">
  <defs
     id="defs4" />
  <metadata
     id="metadata7">
    <rdf:RDF>
      <cc:Work
         rdf:about="">
        <dc:format>image/svg+xml</dc:format>
        <dc:type
           rdf:resource="http://purl.org/dc/dcmitype/StillImage" />
        <dc:title></dc:title>
      </cc:Work>
    </rdf:RDF>
  </metadata>
  <g
     transform="translate(-2.6659932,-505.69565)"
     style="display:inline"
     id="layer2">
    <path
       id="path4403"
       d="m -267.18555,360.41797 a 94,96 0 0 0 -44.65039,13.30469 94,96 0 0 0 -34.70898,128.5664 94,96 0 0 0 124.59375,39.93164 94,96 0 0 0 43.44336,-125.76757 l -6.30078,-11.81055 a 94,96 0 0 0 -82.37696,-44.22461 z m -48.70898,51.52734 20.4375,0 0,34.25586 c 3.08286,-3.72987 6.35686,-6.4719 9.82031,-8.22265 3.46346,-1.78882 7.28802,-2.68164 11.47461,-2.68164 7.38363,0 12.97916,2.26383 16.78516,6.79296 3.84405,4.52914 5.76562,11.1143 5.76562,19.75391 l 0,38.93359 -20.55273,0 0,-6.33593 0,-23.34961 c 0,-5.59482 -0.13397,-9.43991 -0.40039,-11.53321 -0.22836,-2.09329 -0.6469,-3.63348 -1.25586,-4.62304 -0.79926,-1.3321 -1.88375,-2.36085 -3.25391,-3.08399 -1.37016,-0.7612 -2.93088,-1.14062 -4.68164,-1.14062 -4.26271,0 -7.61104,1.65558 -10.04687,4.96679 -2.43584,3.27316 -3.6543,7.82136 -3.6543,13.64454 l 0,31.45507 -20.4375,0 0,-88.83203 z m 83.35156,0 20.4375,0 0,16.67188 -20.4375,0 0,-16.67188 z m 0,24.89258 20.4375,0 0,63.93945 -20.4375,0 0,-63.93945 z"
       style="fill:#ffffff;fill-opacity:0.55214718;stroke:none;stroke-width:10;stroke-miterlimit:4;stroke-dasharray:none;stroke-opacity:1" />
    <g
       id="g4258">
      <path
         style="fill:#ffffff;fill-opacity:1;stroke:none;stroke-width:4.48013544;stroke-miterlimit:4;stroke-dasharray:none;stroke-opacity:1;opacity:0.14"
         d="m 2.6659965,505.69565 0,49.99983 0.3411438,0 49.6586807,-49.65868 0,-0.34115 -49.9998245,0 z"
         id="rect4155-1" />
      <path
         style="fill:#ffffff;fill-opacity:1;stroke:none;stroke-width:4.48013544;stroke-miterlimit:4;stroke-dasharray:none;stroke-opacity:1;opacity:0.07"
         d="m 52.665821,505.69565 0,49.99983 3.33e-4,0 0,-49.65868 49.658686,49.65868 0.34082,0 0,-49.99983 -49.999831,0 z"
         id="rect4155-6-6" />
      <path
         style="fill:#ffffff;fill-opacity:1;stroke:none;stroke-width:4.48013544;stroke-miterlimit:4;stroke-dasharray:none;stroke-opacity:1;opacity:0.21"
         d="m 2.6659932,555.69548 0,49.99982 49.9998238,0 0,-0.34115 -49.658675,-49.65867 -0.3411488,0 z"
         id="rect4155-2-4" />
      <path
         style="fill:#ffffff;fill-opacity:1;stroke:none;stroke-width:4.48013544;stroke-miterlimit:4;stroke-dasharray:none;stroke-opacity:1;opacity:0.14"
         d="m 52.665817,555.69548 0,49.99982 0.341149,0 49.658674,-49.65868 0,-0.34114 -49.999823,0 z"
         id="rect4155-6-4-4" />
      <path
         style="display:inline;fill:#ffffff;fill-opacity:1;stroke:none;stroke-width:4.48013544;stroke-miterlimit:4;stroke-dasharray:none;stroke-opacity:1;opacity:0.07"
         d="m 52.665821,555.69548 0,-49.99983 -0.341144,0 -49.6586805,49.65868 0,0.34115 49.9998245,0 z"
         id="rect4155-1-6" />
      <path
         style="display:inline;fill:#ffffff;fill-opacity:1;stroke:none;stroke-width:4.48013544;stroke-miterlimit:4;stroke-dasharray:none;stroke-opacity:1;opacity:0.21"
         d="m 102.66566,555.69548 0,-49.99983 0,0 0,49.65868 -49.658687,-49.65868 -0.340816,0 0,49.99983 49.999833,0 z"
         id="rect4155-6-6-9" />
    </g>
  </g>
</svg>
